<?xml version="1.0" encoding="UTF-8"?>
<svg id="Layer_1" data-name="Layer 1" xmlns="http://www.w3.org/2000/svg" viewBox="0 0 252 252">
  <defs>
    <style>
      .cls-1 {
        fill: #f5a42a;
      }
    </style>
  </defs>
  <path class="cls-1" d="M49.44,223.23c-10.49-1.41-10.87-12.07-10.64-20.26.64-22.59,3.02-45.89,4.42-68.52,1.06-17.01,1.22-34.79,2.81-51.69.59-6.23,2.92-10.12,9.53-10.92,7.59-.91,16.4.47,24.12-.13,2.93-34.58,39.72-54.1,70.03-36.12,12.98,7.7,21.07,21.04,22.2,36.12,7.4.43,15.3-.5,22.64,0,6.42.44,10.14,2.77,11,9.44,1.45,11.27,1.28,24.18,2.01,35.66,1.86,29.17,4.59,59.03,5.6,88.18.21,6.04.39,11.91-5.08,15.76-.88.62-4.68,2.48-5.54,2.48h-52.3v-20.24c0-1.52-2.01-2.49-3.38-2.63-13.17-1.36-28.69,1.08-42.12.02-.98-.24-3,1.45-3,2.21v20.64h-52.3ZM160.26,71.72c-3.47-22.18-25.09-36.88-46.89-28.65-12.55,4.74-19.77,16.2-22.05,29.05l68.94-.4ZM126.48,100.51l1.8,39.16c11.61,4.85,8.35,21.15-4.59,18.94-9.4-1.6-10.21-15.98-1.1-18.74l2.87-39.29c.14-1.97-2.43-2.84-3.51-1.18l-33.06,50.89c-.67,1.04-.61,2.38.16,3.35,8.28,10.38,15.19,22.35,17.55,35.55.25,1.37,1.43,2.36,2.82,2.37l32.95.03c1.38,0,2.57-.99,2.82-2.35,2.49-13.41,9.54-25.01,17.45-35.9.69-.96.73-2.24.09-3.24l-32.73-50.75c-1.07-1.66-3.64-.81-3.52,1.16Z"/>
</svg>